<mxfile host="app.diagrams.net" agent="Mozilla/5.0 (Windows NT 10.0; Win64; x64; rv:132.0) Gecko/20100101 Firefox/132.0" version="24.8.6">
  <diagram name="Page-1" id="e7e014a7-5840-1c2e-5031-d8a46d1fe8dd">
    <mxGraphModel dx="954" dy="626" grid="1" gridSize="10" guides="1" tooltips="1" connect="1" arrows="1" fold="1" page="1" pageScale="1" pageWidth="1169" pageHeight="826" background="none" math="0" shadow="0">
      <root>
        <mxCell id="0" />
        <mxCell id="1" parent="0" />
        <mxCell id="2" value="User" style="swimlane;whiteSpace=wrap;strokeColor=#000000;" parent="1" vertex="1">
          <mxGeometry x="164.5" y="128" width="280" height="570" as="geometry" />
        </mxCell>
        <mxCell id="5" value="" style="ellipse;shape=startState;fillColor=#000000;strokeColor=#000000;" parent="2" vertex="1">
          <mxGeometry x="125" y="40" width="30" height="30" as="geometry" />
        </mxCell>
        <mxCell id="B6KioGM0QeZRlI_tl2mk-56" value="Request prediction" style="rounded=1;whiteSpace=wrap;html=1;arcSize=40;fontColor=#000000;fillColor=#FFFFFF;strokeColor=#000000;shadow=0;" parent="2" vertex="1">
          <mxGeometry x="80" y="102" width="120" height="40" as="geometry" />
        </mxCell>
        <mxCell id="B6KioGM0QeZRlI_tl2mk-41" value="" style="endArrow=classic;html=1;rounded=0;exitX=0.5;exitY=1;exitDx=0;exitDy=0;entryX=0.5;entryY=0;entryDx=0;entryDy=0;" parent="2" source="5" target="B6KioGM0QeZRlI_tl2mk-56" edge="1">
          <mxGeometry width="50" height="50" relative="1" as="geometry">
            <mxPoint x="45.5" y="92" as="sourcePoint" />
            <mxPoint x="95.5" y="42" as="targetPoint" />
          </mxGeometry>
        </mxCell>
        <mxCell id="B6KioGM0QeZRlI_tl2mk-42" value="" style="endArrow=classic;html=1;rounded=0;exitX=0.5;exitY=1;exitDx=0;exitDy=0;entryX=0.5;entryY=0;entryDx=0;entryDy=0;" parent="2" source="B6KioGM0QeZRlI_tl2mk-56" target="B6KioGM0QeZRlI_tl2mk-55" edge="1">
          <mxGeometry width="50" height="50" relative="1" as="geometry">
            <mxPoint x="135.5" y="192" as="sourcePoint" />
            <mxPoint x="145.5" y="162" as="targetPoint" />
          </mxGeometry>
        </mxCell>
        <mxCell id="B6KioGM0QeZRlI_tl2mk-55" value="Fill stock&amp;nbsp;&lt;span style=&quot;background-color: initial;&quot;&gt;details&lt;/span&gt;" style="rounded=1;whiteSpace=wrap;html=1;arcSize=40;fontColor=#000000;fillColor=#FFFFFF;strokeColor=#000000;shadow=0;" parent="2" vertex="1">
          <mxGeometry x="80" y="182" width="120" height="40" as="geometry" />
        </mxCell>
        <mxCell id="3" value="Bot" style="swimlane;whiteSpace=wrap;strokeColor=#000000;" parent="1" vertex="1">
          <mxGeometry x="444.5" y="128" width="280" height="570" as="geometry" />
        </mxCell>
        <mxCell id="B6KioGM0QeZRlI_tl2mk-51" value="Send stock details" style="rounded=1;whiteSpace=wrap;html=1;arcSize=40;fontColor=#000000;fillColor=#FFFFFF;strokeColor=#000000;shadow=0;" parent="3" vertex="1">
          <mxGeometry x="80.5" y="182" width="120" height="40" as="geometry" />
        </mxCell>
        <mxCell id="B6KioGM0QeZRlI_tl2mk-53" value="Generate prediction" style="rounded=1;whiteSpace=wrap;html=1;arcSize=40;fontColor=#000000;fillColor=#FFFFFF;strokeColor=#000000;shadow=0;" parent="3" vertex="1">
          <mxGeometry x="80.5" y="272" width="120" height="40" as="geometry" />
        </mxCell>
        <mxCell id="B6KioGM0QeZRlI_tl2mk-59" value="Send result" style="rounded=1;whiteSpace=wrap;html=1;arcSize=40;fontColor=#000000;fillColor=#FFFFFF;strokeColor=#000000;shadow=0;" parent="3" vertex="1">
          <mxGeometry x="80.5" y="372" width="120" height="40" as="geometry" />
        </mxCell>
        <mxCell id="B6KioGM0QeZRlI_tl2mk-47" value="" style="endArrow=classic;html=1;rounded=0;exitX=0.5;exitY=1;exitDx=0;exitDy=0;entryX=0.5;entryY=0;entryDx=0;entryDy=0;" parent="3" source="B6KioGM0QeZRlI_tl2mk-53" target="B6KioGM0QeZRlI_tl2mk-59" edge="1">
          <mxGeometry width="50" height="50" relative="1" as="geometry">
            <mxPoint x="155.5" y="392" as="sourcePoint" />
            <mxPoint x="205.5" y="342" as="targetPoint" />
          </mxGeometry>
        </mxCell>
        <mxCell id="4" value="System" style="swimlane;whiteSpace=wrap;strokeColor=#000000;" parent="1" vertex="1">
          <mxGeometry x="724.5" y="128" width="280" height="570" as="geometry" />
        </mxCell>
        <mxCell id="38" value="" style="ellipse;shape=endState;fillColor=#000000;strokeColor=#000000;" parent="4" vertex="1">
          <mxGeometry x="125" y="500" width="30" height="30" as="geometry" />
        </mxCell>
        <mxCell id="39" value="" style="endArrow=open;strokeColor=#000000;endFill=1;rounded=0;exitX=0.5;exitY=1;exitDx=0;exitDy=0;" parent="4" source="B6KioGM0QeZRlI_tl2mk-52" target="38" edge="1">
          <mxGeometry relative="1" as="geometry">
            <mxPoint x="145" y="455" as="sourcePoint" />
          </mxGeometry>
        </mxCell>
        <mxCell id="B6KioGM0QeZRlI_tl2mk-54" value="&lt;div&gt;Predict price&lt;/div&gt;&lt;div&gt;generate a signal&lt;/div&gt;" style="rounded=1;whiteSpace=wrap;html=1;arcSize=40;fontColor=#000000;fillColor=#FFFFFF;strokeColor=#000000;shadow=0;" parent="4" vertex="1">
          <mxGeometry x="80" y="182" width="120" height="40" as="geometry" />
        </mxCell>
        <mxCell id="B6KioGM0QeZRlI_tl2mk-57" value="Send results" style="rounded=1;whiteSpace=wrap;html=1;arcSize=40;fontColor=#000000;fillColor=#FFFFFF;strokeColor=#000000;shadow=0;" parent="4" vertex="1">
          <mxGeometry x="80" y="272" width="120" height="40" as="geometry" />
        </mxCell>
        <mxCell id="B6KioGM0QeZRlI_tl2mk-58" value="" style="edgeStyle=orthogonalEdgeStyle;rounded=0;orthogonalLoop=1;jettySize=auto;html=1;exitX=0.5;exitY=1;exitDx=0;exitDy=0;entryX=0.5;entryY=0;entryDx=0;entryDy=0;" parent="4" source="B6KioGM0QeZRlI_tl2mk-54" target="B6KioGM0QeZRlI_tl2mk-57" edge="1">
          <mxGeometry relative="1" as="geometry">
            <mxPoint x="135" y="234" as="sourcePoint" />
            <mxPoint x="180" y="304" as="targetPoint" />
          </mxGeometry>
        </mxCell>
        <mxCell id="B6KioGM0QeZRlI_tl2mk-52" value="Display prediction" style="rounded=1;whiteSpace=wrap;html=1;arcSize=40;fontColor=#000000;fillColor=#FFFFFF;strokeColor=#000000;shadow=0;" parent="4" vertex="1">
          <mxGeometry x="80" y="372" width="120" height="40" as="geometry" />
        </mxCell>
        <mxCell id="B6KioGM0QeZRlI_tl2mk-43" value="" style="endArrow=classic;html=1;rounded=0;exitX=1;exitY=0.5;exitDx=0;exitDy=0;entryX=0;entryY=0.5;entryDx=0;entryDy=0;" parent="1" source="B6KioGM0QeZRlI_tl2mk-55" target="B6KioGM0QeZRlI_tl2mk-51" edge="1">
          <mxGeometry width="50" height="50" relative="1" as="geometry">
            <mxPoint x="560" y="480" as="sourcePoint" />
            <mxPoint x="610" y="430" as="targetPoint" />
          </mxGeometry>
        </mxCell>
        <mxCell id="B6KioGM0QeZRlI_tl2mk-44" value="" style="endArrow=classic;html=1;rounded=0;exitX=1;exitY=0.5;exitDx=0;exitDy=0;entryX=0;entryY=0.5;entryDx=0;entryDy=0;" parent="1" source="B6KioGM0QeZRlI_tl2mk-51" target="B6KioGM0QeZRlI_tl2mk-54" edge="1">
          <mxGeometry width="50" height="50" relative="1" as="geometry">
            <mxPoint x="570" y="490" as="sourcePoint" />
            <mxPoint x="620" y="440" as="targetPoint" />
          </mxGeometry>
        </mxCell>
        <mxCell id="B6KioGM0QeZRlI_tl2mk-46" value="" style="endArrow=classic;html=1;rounded=0;exitX=0;exitY=0.5;exitDx=0;exitDy=0;entryX=1;entryY=0.5;entryDx=0;entryDy=0;" parent="1" source="B6KioGM0QeZRlI_tl2mk-57" target="B6KioGM0QeZRlI_tl2mk-53" edge="1">
          <mxGeometry width="50" height="50" relative="1" as="geometry">
            <mxPoint x="590" y="510" as="sourcePoint" />
            <mxPoint x="640" y="460" as="targetPoint" />
          </mxGeometry>
        </mxCell>
        <mxCell id="B6KioGM0QeZRlI_tl2mk-48" value="" style="endArrow=classic;html=1;rounded=0;exitX=1;exitY=0.5;exitDx=0;exitDy=0;entryX=0;entryY=0.5;entryDx=0;entryDy=0;" parent="1" source="B6KioGM0QeZRlI_tl2mk-59" target="B6KioGM0QeZRlI_tl2mk-52" edge="1">
          <mxGeometry width="50" height="50" relative="1" as="geometry">
            <mxPoint x="700" y="520" as="sourcePoint" />
            <mxPoint x="750" y="470" as="targetPoint" />
          </mxGeometry>
        </mxCell>
      </root>
    </mxGraphModel>
  </diagram>
</mxfile>
